<svg xmlns="http://www.w3.org/2000/svg" xmlns:xlink="http://www.w3.org/1999/xlink" width="1920" height="1080" viewBox="0 0 1920 1080">
  <defs>
    <filter id="Path_1" x="1230.196" y="203.425" width="618" height="55.258" filterUnits="userSpaceOnUse">
      <feOffset dy="3" input="SourceAlpha"/>
      <feGaussianBlur stdDeviation="3" result="blur"/>
      <feFlood flood-opacity="0.161"/>
      <feComposite operator="in" in2="blur"/>
      <feComposite in="SourceGraphic"/>
    </filter>
    <filter id="Rectangle_1" x="1230" y="264" width="618" height="413" filterUnits="userSpaceOnUse">
      <feOffset dy="3" input="SourceAlpha"/>
      <feGaussianBlur stdDeviation="3" result="blur-2"/>
      <feFlood flood-opacity="0.161"/>
      <feComposite operator="in" in2="blur-2"/>
      <feComposite in="SourceGraphic"/>
    </filter>
    <filter id="Path_2" x="1230.196" y="683.425" width="618" height="55.258" filterUnits="userSpaceOnUse">
      <feOffset dy="3" input="SourceAlpha"/>
      <feGaussianBlur stdDeviation="3" result="blur-3"/>
      <feFlood flood-opacity="0.161"/>
      <feComposite operator="in" in2="blur-3"/>
      <feComposite in="SourceGraphic"/>
    </filter>
    <clipPath id="clip-Web_1920_1">
      <rect width="1920" height="1080"/>
    </clipPath>
  </defs>
  <g id="Web_1920_1" data-name="Web 1920 – 1" clip-path="url(#clip-Web_1920_1)">
    <rect width="1920" height="1080" fill="#fff"/>
    <g transform="matrix(1, 0, 0, 1, 0, 0)" filter="url(#Path_1)">
      <g id="Path_1-2" data-name="Path 1" transform="translate(1239.2 209.42)" fill="#fff">
        <path d="M 593.5584106445312 36.7576904296875 L 6.441615581512451 36.7576904296875 C 4.812922954559326 36.7576904296875 3.289000034332275 36.36830520629883 2.150461435317993 35.66138076782227 C 1.086153864860535 35.00045776367188 0.5 34.14684295654297 0.5 33.2576904296875 L 0.5 3.999997138977051 C 0.5 3.110843420028687 1.086153864860535 2.257227897644043 2.150461435317993 1.596304893493652 C 3.289000034332275 0.8893817663192749 4.812922954559326 0.4999971389770508 6.441615581512451 0.4999971389770508 L 593.5584106445312 0.4999971389770508 C 595.1870727539062 0.4999971389770508 596.7109985351562 0.8893817663192749 597.8495483398438 1.596304893493652 C 598.913818359375 2.257227897644043 599.5 3.110843420028687 599.5 3.999997138977051 L 599.5 33.2576904296875 C 599.5 34.14684295654297 598.913818359375 35.00045776367188 597.8495483398438 35.66138076782227 C 596.7109985351562 36.36830520629883 595.1870727539062 36.7576904296875 593.5584106445312 36.7576904296875 Z" stroke="none"/>
        <path d="M 6.44158935546875 0.9999961853027344 C 4.9271240234375 0.9999961853027344 3.459228515625 1.372150421142578 2.41424560546875 2.021072387695312 C 1.88604736328125 2.349075317382812 1 3.042304992675781 1 3.999996185302734 L 1 33.2576904296875 C 1 34.21538162231445 1.88604736328125 34.90861129760742 2.41424560546875 35.23661422729492 C 3.459228515625 35.88553619384766 4.9271240234375 36.2576904296875 6.44158935546875 36.2576904296875 L 593.5584106445312 36.2576904296875 C 595.07275390625 36.2576904296875 596.5407104492188 35.88553619384766 597.5857543945312 35.23661422729492 C 598.1139526367188 34.90861129760742 599 34.21538162231445 599 33.2576904296875 L 599 3.999996185302734 C 599 3.042304992675781 598.1139526367188 2.349075317382812 597.5857543945312 2.021072387695312 C 596.5407104492188 1.372150421142578 595.07275390625 0.9999961853027344 593.5584106445312 0.9999961853027344 L 6.44158935546875 0.9999961853027344 M 6.44158935546875 -3.814697265625e-06 L 593.5584106445312 -3.814697265625e-06 C 597.1159057617188 -3.814697265625e-06 600 1.790843963623047 600 3.999996185302734 L 600 33.2576904296875 C 600 35.46684265136719 597.1159057617188 37.2576904296875 593.5584106445312 37.2576904296875 L 6.44158935546875 37.2576904296875 C 2.88397216796875 37.2576904296875 0 35.46684265136719 0 33.2576904296875 L 0 3.999996185302734 C 0 1.790843963623047 2.88397216796875 -3.814697265625e-06 6.44158935546875 -3.814697265625e-06 Z" stroke="none" fill="#47494d"/>
      </g>
    </g>
    <text id="Task_Name" data-name="Task Name" transform="translate(1254.1 231.396)" fill="#4d4f5c" font-size="12" font-family="OpenSans, Open Sans"><tspan x="0" y="0">Task Name</tspan></text>
    <text id="TA_ToDo" data-name="TA ToDo" transform="translate(59 76)" fill="#1086c4" font-size="24" font-family="OpenSans-Bold, Open Sans" font-weight="700"><tspan x="0" y="0" fill="#000">TA </tspan><tspan y="0" fill="#1086c4">ToDo</tspan></text>
    <g transform="matrix(1, 0, 0, 1, 0, 0)" filter="url(#Rectangle_1)">
      <g id="Rectangle_1-2" data-name="Rectangle 1" transform="translate(1239 270)" fill="#fff" stroke="#707070" stroke-width="1">
        <rect width="600" height="395" rx="3" stroke="none"/>
        <rect x="0.5" y="0.5" width="599" height="394" rx="2.5" fill="none"/>
      </g>
    </g>
    <text id="Task_Description" data-name="Task Description" transform="translate(1254.1 278.396)" fill="#4d4f5c" font-size="12" font-family="OpenSans, Open Sans"><tspan x="0" y="13">Task Description</tspan></text>
    <g transform="matrix(1, 0, 0, 1, 0, 0)" filter="url(#Path_2)">
      <g id="Path_2-2" data-name="Path 2" transform="translate(1239.2 689.42)" fill="#fff">
        <path d="M 593.5584106445312 36.7576904296875 L 6.441615581512451 36.7576904296875 C 4.812922954559326 36.7576904296875 3.289000034332275 36.36830520629883 2.150461435317993 35.66138076782227 C 1.086153864860535 35.00045776367188 0.5 34.14684295654297 0.5 33.2576904296875 L 0.5 3.999997138977051 C 0.5 3.110843420028687 1.086153864860535 2.257227897644043 2.150461435317993 1.596304893493652 C 3.289000034332275 0.8893817663192749 4.812922954559326 0.4999971389770508 6.441615581512451 0.4999971389770508 L 593.5584106445312 0.4999971389770508 C 595.1870727539062 0.4999971389770508 596.7109985351562 0.8893817663192749 597.8495483398438 1.596304893493652 C 598.913818359375 2.257227897644043 599.5 3.110843420028687 599.5 3.999997138977051 L 599.5 33.2576904296875 C 599.5 34.14684295654297 598.913818359375 35.00045776367188 597.8495483398438 35.66138076782227 C 596.7109985351562 36.36830520629883 595.1870727539062 36.7576904296875 593.5584106445312 36.7576904296875 Z" stroke="none"/>
        <path d="M 6.44158935546875 0.9999961853027344 C 4.9271240234375 0.9999961853027344 3.459228515625 1.372150421142578 2.41424560546875 2.021072387695312 C 1.88604736328125 2.349075317382812 1 3.042304992675781 1 3.999996185302734 L 1 33.2576904296875 C 1 34.21538162231445 1.88604736328125 34.90861129760742 2.41424560546875 35.23661422729492 C 3.459228515625 35.88553619384766 4.9271240234375 36.2576904296875 6.44158935546875 36.2576904296875 L 593.5584106445312 36.2576904296875 C 595.07275390625 36.2576904296875 596.5407104492188 35.88553619384766 597.5857543945312 35.23661422729492 C 598.1139526367188 34.90861129760742 599 34.21538162231445 599 33.2576904296875 L 599 3.999996185302734 C 599 3.042304992675781 598.1139526367188 2.349075317382812 597.5857543945312 2.021072387695312 C 596.5407104492188 1.372150421142578 595.07275390625 0.9999961853027344 593.5584106445312 0.9999961853027344 L 6.44158935546875 0.9999961853027344 M 6.44158935546875 -3.814697265625e-06 L 593.5584106445312 -3.814697265625e-06 C 597.1159057617188 -3.814697265625e-06 600 1.790843963623047 600 3.999996185302734 L 600 33.2576904296875 C 600 35.46684265136719 597.1159057617188 37.2576904296875 593.5584106445312 37.2576904296875 L 6.44158935546875 37.2576904296875 C 2.88397216796875 37.2576904296875 0 35.46684265136719 0 33.2576904296875 L 0 3.999996185302734 C 0 1.790843963623047 2.88397216796875 -3.814697265625e-06 6.44158935546875 -3.814697265625e-06 Z" stroke="none" fill="#47494d"/>
      </g>
    </g>
    <text id="Due_Date" data-name="Due Date" transform="translate(1254.1 711.396)" fill="#4d4f5c" font-size="12" font-family="OpenSans, Open Sans"><tspan x="0" y="0">Due Date</tspan></text>
    <rect id="Rectangle_2" data-name="Rectangle 2" width="7" height="70" rx="3.5" transform="translate(1826 276)" fill="rgba(110,110,110,0.55)"/>
    <line id="Line_1" data-name="Line 1" x2="99" transform="translate(59.5 83.5)" fill="none" stroke="#707070" stroke-width="1"/>
    <text id="List_of_To_Dos:_" data-name="List of To Dos:
" transform="translate(60 145)" font-size="18" font-family="OpenSans, Open Sans"><tspan x="0" y="0">List of To Dos:</tspan><tspan x="0" y="24"></tspan></text>
    <g id="Group_3" data-name="Group 3">
      <text id="_1._Lorem_ipsum_" data-name="1. Lorem ipsum				" transform="translate(60 235)" font-size="18" font-family="OpenSans, Open Sans"><tspan x="0" y="0" xml:space="preserve">1. Lorem ipsum				</tspan></text>
      <text id="Quisque_sit_amet_ultricies_Leo_in_pretium_arcu._Ut_iaculis_nunc_eu_ligula_ultricies_accumsan._Curabitur_finibus_hendrerit_urna_nec." data-name="Quisque sit amet ultricies Leo, in pretium arcu. Ut iaculis nunc 
eu ligula ultricies accumsan. Curabitur finibus hendrerit urna nec." transform="translate(250 235)" font-size="18" font-family="OpenSans, Open Sans"><tspan x="0" y="0">Quisque sit amet ultricies Leo, in pretium arcu. Ut iaculis nunc </tspan><tspan x="0" y="24">eu ligula ultricies accumsan. Curabitur finibus hendrerit urna nec.</tspan></text>
      <text id="_02_15_2019" data-name="02/15/2019" transform="translate(870 235)" font-size="18" font-family="OpenSans, Open Sans"><tspan x="0" y="0">02/15/2019</tspan></text>
    </g>
    <g id="Group_2" data-name="Group 2" transform="translate(0 25)">
      <text id="_2._Lorem_ipsum_" data-name="2. Lorem ipsum				" transform="translate(60 305)" font-size="18" font-family="OpenSans, Open Sans"><tspan x="0" y="0" xml:space="preserve">2. Lorem ipsum				</tspan></text>
      <text id="Quisque_sit_amet_ultricies_Leo_in_pretium_arcu._Ut_iaculis_nunc_eu_ligula_ultricies_accumsan._Curabitur_finibus_hendrerit_urna_nec.-2" data-name="Quisque sit amet ultricies Leo, in pretium arcu. Ut iaculis nunc 
eu ligula ultricies accumsan. Curabitur finibus hendrerit urna nec." transform="translate(250 305)" font-size="18" font-family="OpenSans, Open Sans"><tspan x="0" y="0">Quisque sit amet ultricies Leo, in pretium arcu. Ut iaculis nunc </tspan><tspan x="0" y="24">eu ligula ultricies accumsan. Curabitur finibus hendrerit urna nec.</tspan></text>
      <text id="_02_28_2019" data-name="02/28/2019" transform="translate(870 305)" font-size="18" font-family="OpenSans, Open Sans"><tspan x="0" y="0">02/28/2019</tspan></text>
    </g>
    <g id="Group_1" data-name="Group 1" transform="translate(0 40)">
      <text id="_3._Lorem_ipsum_" data-name="3. Lorem ipsum				" transform="translate(60 385)" font-size="18" font-family="OpenSans, Open Sans"><tspan x="0" y="0" xml:space="preserve">3. Lorem ipsum				</tspan></text>
      <text id="Quisque_sit_amet_ultricies_Leo_in_pretium_arcu._Ut_iaculis_nunc_eu_ligula_ultricies_accumsan._Curabitur_finibus_hendrerit_urna_nec.-3" data-name="Quisque sit amet ultricies Leo, in pretium arcu. Ut iaculis nunc 
eu ligula ultricies accumsan. Curabitur finibus hendrerit urna nec." transform="translate(250 385)" font-size="18" font-family="OpenSans, Open Sans"><tspan x="0" y="0">Quisque sit amet ultricies Leo, in pretium arcu. Ut iaculis nunc </tspan><tspan x="0" y="24">eu ligula ultricies accumsan. Curabitur finibus hendrerit urna nec.</tspan></text>
      <text id="_03_01_2019" data-name="03/01/2019" transform="translate(870 385)" font-size="18" font-family="OpenSans, Open Sans"><tspan x="0" y="0">03/01/2019</tspan></text>
    </g>
    <g id="Group_4" data-name="Group 4" transform="translate(0 290)">
      <text id="_1._Lorem_ipsum_2" data-name="1. Lorem ipsum				" transform="translate(60 235)" font-size="18" font-family="OpenSans, Open Sans"><tspan x="0" y="0" xml:space="preserve">1. Lorem ipsum				</tspan></text>
      <text id="Quisque_sit_amet_ultricies_Leo_in_pretium_arcu._Ut_iaculis_nunc_eu_ligula_ultricies_accumsan._Curabitur_finibus_hendrerit_urna_nec.-4" data-name="Quisque sit amet ultricies Leo, in pretium arcu. Ut iaculis nunc 
eu ligula ultricies accumsan. Curabitur finibus hendrerit urna nec." transform="translate(250 235)" font-size="18" font-family="OpenSans, Open Sans"><tspan x="0" y="0">Quisque sit amet ultricies Leo, in pretium arcu. Ut iaculis nunc </tspan><tspan x="0" y="24">eu ligula ultricies accumsan. Curabitur finibus hendrerit urna nec.</tspan></text>
      <text id="_02_15_2019-2" data-name="02/15/2019" transform="translate(870 235)" font-size="18" font-family="OpenSans, Open Sans"><tspan x="0" y="0">02/15/2019</tspan></text>
    </g>
    <g id="Group_5" data-name="Group 5" transform="translate(0 315)">
      <text id="_2._Lorem_ipsum_2" data-name="2. Lorem ipsum				" transform="translate(60 305)" font-size="18" font-family="OpenSans, Open Sans"><tspan x="0" y="0" xml:space="preserve">2. Lorem ipsum				</tspan></text>
      <text id="Quisque_sit_amet_ultricies_Leo_in_pretium_arcu._Ut_iaculis_nunc_eu_ligula_ultricies_accumsan._Curabitur_finibus_hendrerit_urna_nec.-5" data-name="Quisque sit amet ultricies Leo, in pretium arcu. Ut iaculis nunc 
eu ligula ultricies accumsan. Curabitur finibus hendrerit urna nec." transform="translate(250 305)" font-size="18" font-family="OpenSans, Open Sans"><tspan x="0" y="0">Quisque sit amet ultricies Leo, in pretium arcu. Ut iaculis nunc </tspan><tspan x="0" y="24">eu ligula ultricies accumsan. Curabitur finibus hendrerit urna nec.</tspan></text>
      <text id="_02_28_2019-2" data-name="02/28/2019" transform="translate(870 305)" font-size="18" font-family="OpenSans, Open Sans"><tspan x="0" y="0">02/28/2019</tspan></text>
    </g>
    <g id="Group_6" data-name="Group 6" transform="translate(0 330)">
      <text id="_3._Lorem_ipsum_2" data-name="3. Lorem ipsum				" transform="translate(60 385)" font-size="18" font-family="OpenSans, Open Sans"><tspan x="0" y="0" xml:space="preserve">3. Lorem ipsum				</tspan></text>
      <text id="Quisque_sit_amet_ultricies_Leo_in_pretium_arcu._Ut_iaculis_nunc_eu_ligula_ultricies_accumsan._Curabitur_finibus_hendrerit_urna_nec.-6" data-name="Quisque sit amet ultricies Leo, in pretium arcu. Ut iaculis nunc 
eu ligula ultricies accumsan. Curabitur finibus hendrerit urna nec." transform="translate(250 385)" font-size="18" font-family="OpenSans, Open Sans"><tspan x="0" y="0">Quisque sit amet ultricies Leo, in pretium arcu. Ut iaculis nunc </tspan><tspan x="0" y="24">eu ligula ultricies accumsan. Curabitur finibus hendrerit urna nec.</tspan></text>
      <text id="_03_01_2019-2" data-name="03/01/2019" transform="translate(870 385)" font-size="18" font-family="OpenSans, Open Sans"><tspan x="0" y="0">03/01/2019</tspan></text>
    </g>
    <text id="Create_a_new_Task" data-name="Create a new Task" transform="translate(1239 169)" font-size="18" font-family="OpenSans, Open Sans"><tspan x="0" y="0">Create a new Task</tspan></text>
    <g id="Rectangle_3" data-name="Rectangle 3" transform="translate(1703 783)" fill="#1086c4" stroke="#fff" stroke-width="1">
      <rect width="136" height="48" rx="4" stroke="none"/>
      <rect x="0.5" y="0.5" width="135" height="47" rx="3.5" fill="none"/>
    </g>
    <text id="Add_Task" data-name="Add Task" transform="translate(1730 815)" fill="#fff" font-size="20" font-family="OpenSans, Open Sans"><tspan x="0" y="0">Add Task</tspan></text>
    <text id="Login" transform="translate(1819 50)" font-size="16" font-family="OpenSans, Open Sans" text-decoration="underline"><tspan x="0" y="0">Login</tspan></text>
  </g>
</svg>
